<svg version="1.1" preserveAspectRatio="none" xmlns="http://www.w3.org/2000/svg" width="500" height="500" viewBox="0 0 500 500"><rect width="100%" height="100%" fill="#FFF9F2" fill-opacity="1"/><svg viewBox="41.1766 158.6362 428.9572 160" width="333" height="124.20819606245098" x="83.5px" y="187.8959px" xmlns="http://www.w3.org/2000/svg" xmlns:xlink="http://www.w3.org/1999/xlink" preserveAspectRatio="none"><defs></defs><style>.background {fill:#FFF9F2;fill-opacity:1;}.companyName {fill:#C50E52;fill-opacity:1;}.icon3 {fill:#FD9C2B;fill-opacity:1;}.icon3-str {stroke:#FD9C2B;stroke-opacity:1;}.shapeStroke-str {stroke:#AA0844;stroke-opacity:1;}</style><g opacity="1" transform="rotate(0 41.1766 158.6362)">
<svg width="216.4786" height="160" x="41.1766" y="158.6362" version="1.1" preserveAspectRatio="none" viewBox="0 0 216.4786 160">
  <defs><rect x="0" y="0" width="216.4786" height="160" rx="0px" ry="0px" id="id-60p5ZquTE1725337486059"></rect></defs><use class="companyName shapeStroke-str" style="stroke-width:0;" xlink:href="#id-60p5ZquTE1725337486059"></use>
</svg>
</g><g opacity="1" transform="rotate(0 255.6552 158.6362)">
<svg width="214.4786" height="160" x="255.6552" y="158.6362" version="1.1" preserveAspectRatio="none" viewBox="0 0 214.4786 160">
  <defs><rect x="0" y="0" width="214.4786" height="160" rx="0px" ry="0px" id="id-hs7pIl34o1725337486059"></rect></defs><use class="icon3 shapeStroke-str" style="stroke-width:0;" xlink:href="#id-hs7pIl34o1725337486059"></use>
</svg>
</g><g opacity="1" transform="rotate(0 91.1766 218.6362)">
<svg width="328.9572" height="40" x="91.1766" y="218.6362" version="1.1" preserveAspectRatio="none" viewBox="0.3516 -29.4141 249.60930000000002 30.3516">
  <g transform="matrix(1 0 0 1 0 0)" class="background"><path id="id-D6z1nYkh9" d="M32.03-19.65L32.03-19.65Q30.10-19.65 29.34-21.48L29.34-21.48Q26.52-21.48 23.16-20.12L23.16-20.12Q21.07-19.26 20.35-18.54Q19.63-17.81 19.58-17.40Q19.53-16.99 19.98-16.71Q20.43-16.43 21.24-16.17Q22.05-15.92 23.13-15.66L23.13-15.66Q28.75-14.36 30.25-13.85L30.25-13.85Q33.24-12.85 34.73-11.66L34.73-11.66Q36.13-10.47 36.13-8.42L36.13-8.42Q36.13-6.72 35.09-5.55Q34.04-4.38 32.32-3.46Q30.61-2.54 28.49-1.83Q26.37-1.11 24.01-0.61Q21.66-0.10 19.38 0.23L19.38 0.23Q14.90 0.86 11.74 0.86L11.74 0.86Q5.98 0.86 2.85-0.53L2.85-0.53Q1.68-1.05 0.94-3.16L0.94-3.16Q0.35-4.90 0.35-6.03Q0.35-7.15 0.55-7.27Q0.74-7.38 1.35-7.28Q1.95-7.17 2.93-6.91L2.93-6.91L5.27-6.29Q10.72-4.92 16.80-4.92L16.80-4.92Q21.27-4.92 24.38-5.72L24.38-5.72Q26.21-6.21 26.33-6.82L26.33-6.82Q26.41-7.34 23.44-8.13L23.44-8.13Q22.09-8.50 20.31-8.91L20.31-8.91Q11.70-11.00 9.92-11.60Q8.14-12.21 7.61-12.68Q7.07-13.14 6.72-13.71L6.72-13.71Q6.07-14.82 6.07-15.83Q6.07-16.84 6.18-17.38Q6.29-17.93 6.48-18.40L6.48-18.40Q6.89-19.36 7.52-19.71L7.52-19.71Q12.54-22.52 22.27-24.65L22.27-24.65Q30.92-26.56 36.50-26.56L36.50-26.56Q37.64-26.56 38.20-26.17L38.20-26.17Q39.18-25.45 39.06-24.63Q38.95-23.81 38.56-23.12Q38.18-22.42 37.62-21.87Q37.05-21.31 36.36-20.89Q35.66-20.47 34.92-20.20L34.92-20.20Q33.44-19.65 32.03-19.65Z M73.85-14.67L73.85-14.67Q74.47-14.67 74.47-13.61L74.47-13.61Q74.47-11.80 71.93-8.91L71.93-8.91L70.82-7.77Q65.76-2.71 61.29-1.04L61.29-1.04Q58.52 0 57.30-1.13L57.30-1.13Q56.31-2.09 55.72-4.22L55.72-4.22L55.25-5.92L51.09-3.36L48.69-1.99Q44.39 0.35 42.25 0.35L42.25 0.35Q39.49 0.35 37.66-1.78L37.66-1.78Q35.90-3.79 35.90-6.45L35.90-6.45Q35.90-9.06 37.99-11.11L37.99-11.11Q40.98-14.04 47.42-16.48L47.42-16.48Q53.52-18.77 57.27-18.77L57.27-18.77Q58.54-18.77 58.54-17.52L58.54-17.52Q58.54-16.66 58.20-16.23Q57.87-15.80 56.84-15.35L56.84-15.35L54.38-14.30Q48.91-12.01 46.37-9.55L46.37-9.55Q45.64-8.87 45.64-8.22Q45.64-7.58 46.68-7.58L46.68-7.58Q47.70-7.58 51.41-9.77L51.41-9.77L53.03-10.72Q56.80-12.99 59.34-12.99L59.34-12.99Q61.48-12.99 62.19-11.09L62.19-11.09Q62.36-10.59 62.52-10.07Q62.68-9.55 62.83-9.14L62.83-9.14Q63.18-8.18 63.47-8.18Q63.75-8.18 64.28-8.47Q64.80-8.75 65.44-9.19Q66.07-9.63 66.76-10.16L66.76-10.16L69.12-12.05Q72.27-14.67 73.85-14.67Z M86.78-22.59Q86.21-22.11 85.55-21.81Q84.88-21.50 84.06-21.50Q83.24-21.50 82.48-21.78Q81.72-22.05 81.15-22.54L81.15-22.54Q79.92-23.59 79.92-25.23L79.92-25.23Q79.92-27.75 84.14-28.98L84.14-28.98Q85.57-29.41 86.48-29.41Q87.40-29.41 87.86-29.21Q88.32-29.00 88.61-28.67L88.61-28.67Q89.20-28.01 89.20-27.31Q89.20-26.62 89.03-26.05Q88.87-25.49 88.55-24.88Q88.24-24.28 87.79-23.67Q87.34-23.07 86.78-22.59ZM81.86-1.08Q80.37-0.31 78.96 0.15Q77.56 0.61 76.20 0.61Q74.84 0.61 73.39-0.05Q71.93-0.70 70.80-1.80L70.80-1.80Q68.28-4.24 68.28-7.23L68.28-7.23Q68.28-9.98 69.92-12.81L69.92-12.81Q71.43-15.37 73.75-17.11L73.75-17.11Q76.07-18.85 78.07-18.85L78.07-18.85Q80.92-18.85 81.11-17.25L81.11-17.25Q81.17-16.76 81.17-16.11Q81.17-15.47 80.87-14.64Q80.57-13.81 80.09-12.98Q79.61-12.15 79.03-11.36Q78.46-10.57 77.93-9.92L77.93-9.92Q76.91-8.69 76.31-8.14L76.31-8.14Q76.31-7.48 77.30-6.78L77.30-6.78Q78.24-6.11 78.90-6.11Q79.55-6.11 80.44-6.43Q81.33-6.74 82.28-7.27Q83.22-7.79 84.21-8.48Q85.20-9.16 86.15-9.88L86.15-9.88L89.73-12.68Q91.86-14.22 93.18-14.22L93.18-14.22Q93.71-14.22 93.99-13.84Q94.28-13.46 94.28-12.95Q94.28-12.44 93.77-11.55Q93.26-10.66 92.37-9.59Q91.48-8.52 90.29-7.34Q89.10-6.17 87.71-5.04Q86.33-3.91 84.83-2.88Q83.34-1.86 81.86-1.08Z M136.72-26.56L136.72-26.56Q139.59-26.56 139.59-24.98L139.59-24.98Q139.59-23.61 137.42-20.98L137.42-20.98Q137.15-20.64 136.25-19.84L136.25-19.84L134.02-17.85L127.38-12.32Q127.87-11.45 129.04-10.21Q130.21-8.98 131.13-8.20L131.13-8.20Q133.13-6.45 133.56-6.45Q134.00-6.45 134.68-6.78Q135.35-7.11 136.19-7.65Q137.03-8.18 137.97-8.87L137.97-8.87L142.89-12.60Q143.59-13.14 144.30-13.14L144.30-13.14Q145.76-13.14 145.76-11.93L145.76-11.93Q145.76-10.35 144.22-8.24L144.22-8.24Q143.75-7.62 143.32-7.19L143.32-7.19L142.09-6.05Q136.74-1.15 132.58 0.43L132.58 0.43Q131.29 0.94 130.27 0.94Q129.26 0.94 128.32 0.59Q127.38 0.23 126.46-0.35Q125.55-0.94 124.68-1.71Q123.81-2.48 123.03-3.34L123.03-3.34Q121.60-4.90 120.37-6.78L120.37-6.78L116.78-4.10Q111.04 0.08 109.77 0.08L109.77 0.08Q108.40 0.08 107.13-0.70L107.13-0.70Q106.76-0.92 106.62-1.17L106.62-1.17Q105.90-1.89 105.90-4.14Q105.90-6.39 106.26-8.15Q106.62-9.92 107.23-11.73Q107.83-13.54 108.63-15.31Q109.43-17.09 110.31-18.71Q111.19-20.33 112.11-21.73Q113.03-23.13 113.87-24.14L113.87-24.14Q115.63-26.33 116.51-26.33Q117.40-26.33 118.30-26.17Q119.20-26.02 119.92-25.70L119.92-25.70Q121.56-24.96 121.56-23.69L121.56-23.69Q121.56-22.93 120.96-22.05Q120.35-21.17 119.61-19.98L119.61-19.98Q117.62-16.64 116.84-15.23L116.84-15.23L115.53-12.77Q114.38-10.51 114.38-9.98L114.38-9.98Q114.38-9.53 115.12-9.53L115.12-9.53Q115.41-9.53 117.27-11.13L117.27-11.13L120.55-13.98L130.80-23.36Q131.54-24.04 131.66-24.16L131.66-24.16Q132.85-25.37 134.21-25.97Q135.57-26.56 136.72-26.56Z M159.88-22.59Q159.32-22.11 158.65-21.81Q157.99-21.50 157.17-21.50Q156.35-21.50 155.59-21.78Q154.82-22.05 154.26-22.54L154.26-22.54Q153.03-23.59 153.03-25.23L153.03-25.23Q153.03-27.75 157.25-28.98L157.25-28.98Q158.67-29.41 159.59-29.41Q160.51-29.41 160.97-29.21Q161.43-29.00 161.72-28.67L161.72-28.67Q162.30-28.01 162.30-27.31Q162.30-26.62 162.14-26.05Q161.97-25.49 161.66-24.88Q161.35-24.28 160.90-23.67Q160.45-23.07 159.88-22.59ZM154.96-1.08Q153.48-0.31 152.07 0.15Q150.66 0.61 149.31 0.61Q147.95 0.61 146.49-0.05Q145.04-0.70 143.91-1.80L143.91-1.80Q141.39-4.24 141.39-7.23L141.39-7.23Q141.39-9.98 143.03-12.81L143.03-12.81Q144.53-15.37 146.86-17.11L146.86-17.11Q149.18-18.85 151.17-18.85L151.17-18.85Q154.02-18.85 154.22-17.25L154.22-17.25Q154.28-16.76 154.28-16.11Q154.28-15.47 153.97-14.64Q153.67-13.81 153.19-12.98Q152.71-12.15 152.14-11.36Q151.56-10.57 151.04-9.92L151.04-9.92Q150.02-8.69 149.41-8.14L149.41-8.14Q149.41-7.48 150.41-6.78L150.41-6.78Q151.35-6.11 152.00-6.11Q152.66-6.11 153.54-6.43Q154.43-6.74 155.38-7.27Q156.33-7.79 157.31-8.48Q158.30-9.16 159.26-9.88L159.26-9.88L162.83-12.68Q164.96-14.22 166.29-14.22L166.29-14.22Q166.82-14.22 167.10-13.84Q167.38-13.46 167.38-12.95Q167.38-12.44 166.88-11.55Q166.37-10.66 165.48-9.59Q164.59-8.52 163.40-7.34Q162.21-6.17 160.82-5.04Q159.43-3.91 157.94-2.88Q156.45-1.86 154.96-1.08Z M161.80-6.45L161.80-6.45Q161.43-6.45 161.06-6.62Q160.70-6.80 160.39-7.19L160.39-7.19Q159.71-8.05 159.71-9.53L159.71-9.53Q159.71-11.11 161.60-13.48L161.60-13.48Q163.44-15.76 165.88-17.42L165.88-17.42Q168.50-19.22 170.37-19.22L170.37-19.22Q172.03-19.22 172.62-18.28L172.62-18.28L172.89-17.85Q173.20-17.36 173.52-17.36Q173.83-17.36 174.49-17.42L174.49-17.42L177.27-17.62Q177.91-17.68 178.28-17.68Q178.65-17.68 179.13-17.41Q179.61-17.15 179.98-16.72L179.98-16.72Q180.80-15.74 180.80-14.57L180.80-14.57Q180.80-13.36 178.13-10.76L178.13-10.76L176.84-9.47Q175.45-8.05 175.45-7.68Q175.45-7.30 175.80-7.02Q176.15-6.74 176.56-6.74Q176.97-6.74 177.49-6.96Q178.01-7.19 178.77-7.63Q179.53-8.07 180.51-8.69L180.51-8.69Q183.18-10.45 184.08-11.11L184.08-11.11L185.70-12.27Q187.36-13.44 188.07-13.44Q188.77-13.44 189.22-13.13Q189.67-12.83 189.67-12.09Q189.67-11.35 188.91-10.10Q188.14-8.85 187.26-7.93Q186.37-7.01 185.53-6.23Q184.69-5.45 183.54-4.54Q182.40-3.63 181.02-2.71Q179.63-1.78 178.09-1.04L178.09-1.04Q174.59 0.66 171.66 0.66L171.66 0.66Q167.38 0.66 166.45-1.54L166.45-1.54Q166.15-2.21 166.15-3.03Q166.15-3.85 166.46-4.79Q166.78-5.74 167.29-6.68L167.29-6.68Q168.30-8.54 169.69-9.96L169.69-9.96Q170.86-11.19 170.86-11.43L170.86-11.43Q170.86-11.80 170.44-11.89Q170.02-11.99 169.20-11.99L169.20-11.99Q168.85-11.99 167.70-10.98L167.70-10.98L165.78-9.22Q162.73-6.45 161.80-6.45Z M220.02-14.67L220.02-14.67Q220.64-14.67 220.64-13.61L220.64-13.61Q220.64-11.80 218.11-8.91L218.11-8.91L216.99-7.77Q211.93-2.71 207.46-1.04L207.46-1.04Q204.69 0 203.48-1.13L203.48-1.13Q202.48-2.09 201.89-4.22L201.89-4.22L201.43-5.92L197.27-3.36L194.86-1.99Q190.57 0.35 188.42 0.35L188.42 0.35Q185.66 0.35 183.83-1.78L183.83-1.78Q182.07-3.79 182.07-6.45L182.07-6.45Q182.07-9.06 184.16-11.11L184.16-11.11Q187.15-14.04 193.59-16.48L193.59-16.48Q199.69-18.77 203.44-18.77L203.44-18.77Q204.71-18.77 204.71-17.52L204.71-17.52Q204.71-16.66 204.38-16.23Q204.04-15.80 203.01-15.35L203.01-15.35L200.55-14.30Q195.08-12.01 192.54-9.55L192.54-9.55Q191.82-8.87 191.82-8.22Q191.82-7.58 192.85-7.58L192.85-7.58Q193.87-7.58 197.58-9.77L197.58-9.77L199.20-10.72Q202.97-12.99 205.51-12.99L205.51-12.99Q207.66-12.99 208.36-11.09L208.36-11.09Q208.54-10.59 208.69-10.07Q208.85-9.55 209.00-9.14L209.00-9.14Q209.36-8.18 209.64-8.18Q209.92-8.18 210.45-8.47Q210.98-8.75 211.61-9.19Q212.25-9.63 212.93-10.16L212.93-10.16L215.29-12.05Q218.44-14.67 220.02-14.67Z M237.71-10.49L237.71-10.49Q237.71-8.71 238.75-8.71L238.75-8.71Q241.29-8.71 245.35-12.15L245.35-12.15L245.88-12.60Q247.46-13.65 248.45-13.65Q249.43-13.65 249.70-13.36Q249.96-13.07 249.96-12.42L249.96-12.42Q249.96-10.98 248.50-9.36L248.50-9.36Q246.31-6.70 242.50-4.32L242.50-4.32Q238.09-1.54 234.59-1.54L234.59-1.54Q232.15-1.54 231.52-4.26L231.52-4.26Q231.35-4.96 231.27-5.61L231.27-5.61Q231.07-7.17 230.86-7.34Q230.64-7.52 230.01-7.31Q229.38-7.11 228.51-6.63Q227.64-6.15 226.58-5.47L226.58-5.47Q221.00-1.76 220.16-1.23L220.16-1.23Q218.14 0.02 217.44 0.02Q216.74 0.02 216.06-0.27Q215.39-0.57 214.88-1.02L214.88-1.02Q213.83-2.01 213.83-3.05L213.83-3.05Q213.83-8.96 216.41-13.40L216.41-13.40Q218.13-16.39 220.63-17.54L220.63-17.54Q221.89-18.14 223.36-18.14L223.36-18.14Q226.04-18.14 226.04-16.39L226.04-16.39Q226.04-15.31 224.77-12.87L224.77-12.87L224.18-11.72Q223.55-10.53 223.57-10.37L223.57-10.37Q223.69-9.79 224.10-9.79L224.10-9.79Q224.55-9.79 225.43-10.45L225.43-10.45L229.02-13.13L230.82-14.38Q233.93-16.41 235.39-16.41L235.39-16.41Q236.17-16.41 236.82-15.78L236.82-15.78Q238.01-14.65 238.01-13.81L238.01-13.81Q238.01-13.54 237.96-13.14Q237.91-12.75 237.85-12.30L237.85-12.30L237.77-11.39Q237.71-10.92 237.71-10.49Z"/></g>
</svg>
</g></svg></svg>